<svg xmlns="http://www.w3.org/2000/svg" xmlns:xlink="http://www.w3.org/1999/xlink" width="480" zoomAndPan="magnify" viewBox="0 0 360 359.999987" height="480" preserveAspectRatio="xMidYMid meet" version="1.0"><defs><clipPath id="8dd39804a9"><path d="M 153.941406 148.566406 L 205.703125 148.566406 L 205.703125 264.449219 L 153.941406 264.449219 Z M 153.941406 148.566406 " clip-rule="nonzero"/></clipPath><clipPath id="ab11b9efef"><path d="M 130.386719 151.433594 L 180 151.433594 L 180 219.3125 L 130.386719 219.3125 Z M 130.386719 151.433594 " clip-rule="nonzero"/></clipPath><clipPath id="6c2a0dea1c"><path d="M 185.550781 151.433594 L 229.074219 151.433594 L 229.074219 219.3125 L 185.550781 219.3125 Z M 185.550781 151.433594 " clip-rule="nonzero"/></clipPath><clipPath id="a204d004de"><path d="M 106.25 140 L 254 140 L 254 168 L 106.25 168 Z M 106.25 140 " clip-rule="nonzero"/></clipPath><clipPath id="73406794b0"><path d="M 106.25 167 L 149 167 L 149 191 L 106.25 191 Z M 106.25 167 " clip-rule="nonzero"/></clipPath></defs><g clip-path="url(#8dd39804a9)"><path fill="#ffffff" d="M 153.941406 148.566406 L 205.703125 148.566406 L 205.703125 264.421875 L 153.941406 264.421875 Z M 153.941406 148.566406 " fill-opacity="1" fill-rule="nonzero"/></g><g clip-path="url(#ab11b9efef)"><path fill="#ffffff" d="M 130.386719 151.433594 L 180 151.433594 L 180 219.261719 L 130.386719 219.261719 Z M 130.386719 151.433594 " fill-opacity="1" fill-rule="nonzero"/></g><g clip-path="url(#6c2a0dea1c)"><path fill="#ffffff" d="M 185.550781 151.433594 L 229.074219 151.433594 L 229.074219 219.265625 L 185.550781 219.265625 Z M 185.550781 151.433594 " fill-opacity="1" fill-rule="nonzero"/></g><path fill="#ec2323" d="M 215.164062 96.734375 C 212.441406 95.414062 209.65625 94.25 206.800781 93.246094 C 203.949219 92.238281 201.050781 91.398438 198.101562 90.722656 C 195.152344 90.042969 192.175781 89.535156 189.167969 89.195312 C 186.164062 88.855469 183.148438 88.683594 180.121094 88.683594 C 177.097656 88.683594 174.082031 88.855469 171.078125 89.195312 C 168.070312 89.535156 165.09375 90.042969 162.144531 90.722656 C 159.195312 91.398438 156.296875 92.238281 153.441406 93.246094 C 150.589844 94.25 147.804688 95.414062 145.082031 96.734375 C 134.601562 101.824219 126.640625 108.472656 120.746094 116.050781 L 239.503906 116.050781 C 233.609375 108.472656 225.652344 101.824219 215.164062 96.734375 Z M 215.164062 96.734375 " fill-opacity="1" fill-rule="nonzero"/><path fill="#f28c22" d="M 239.824219 116.472656 L 239.503906 116.050781 L 120.746094 116.050781 L 120.421875 116.472656 C 117.675781 120.105469 115.328125 123.980469 113.382812 128.101562 C 111.4375 132.21875 109.933594 136.492188 108.871094 140.921875 L 251.375 140.921875 C 250.3125 136.492188 248.808594 132.21875 246.863281 128.097656 C 244.917969 123.980469 242.570312 120.105469 239.824219 116.472656 Z M 239.824219 116.472656 " fill-opacity="1" fill-rule="nonzero"/><path fill="#f1f13a" d="M 211.445312 163.992188 C 210.960938 161.925781 210.039062 160.449219 209.023438 159.902344 C 208.796875 159.769531 208.546875 159.703125 208.285156 159.707031 C 207.800781 159.707031 207.082031 159.921875 206.089844 160.769531 C 205.578125 161.210938 204.851562 162.125 203.992188 163.992188 C 203.519531 165.039062 203.097656 166.109375 202.734375 167.199219 L 211.84375 167.199219 C 211.824219 166.113281 211.6875 165.046875 211.445312 163.992188 Z M 211.445312 163.992188 " fill-opacity="1" fill-rule="nonzero"/><g clip-path="url(#a204d004de)"><path fill="#f1f13a" d="M 251.375 140.921875 L 108.871094 140.921875 C 107.042969 148.503906 106.265625 156.195312 106.542969 163.992188 C 106.578125 165.058594 106.628906 166.132812 106.699219 167.199219 L 144.292969 167.199219 C 145.25 165.96875 146.363281 164.898438 147.632812 163.992188 C 147.929688 163.773438 148.234375 163.566406 148.554688 163.363281 C 152.097656 161.121094 155.0625 161.828125 156.933594 162.816406 C 157.550781 163.144531 158.128906 163.539062 158.664062 163.992188 C 159.753906 164.929688 160.691406 165.996094 161.480469 167.199219 L 196.679688 167.199219 C 197.042969 166 197.402344 164.933594 197.75 163.992188 C 199.753906 158.570312 201.4375 157.128906 202.332031 156.359375 C 205.378906 153.757812 208.835938 153.1875 211.8125 154.800781 C 214.714844 156.367188 216.652344 159.757812 217.367188 163.992188 C 217.542969 165.050781 217.640625 166.121094 217.65625 167.199219 L 253.554688 167.199219 C 253.621094 166.132812 253.671875 165.058594 253.707031 163.992188 C 253.984375 156.195312 253.207031 148.503906 251.375 140.921875 Z M 251.375 140.921875 " fill-opacity="1" fill-rule="nonzero"/></g><g clip-path="url(#73406794b0)"><path fill="#33aa40" d="M 110.136719 187.90625 C 110.40625 188.875 110.683594 189.84375 110.964844 190.808594 L 148.710938 190.808594 C 147.703125 189.914062 146.769531 188.945312 145.910156 187.90625 C 144.574219 186.304688 143.496094 184.539062 142.675781 182.621094 C 140.335938 177.066406 141.015625 171.453125 144.296875 167.199219 L 106.699219 167.199219 C 107.15625 174.214844 108.300781 181.117188 110.136719 187.90625 Z M 110.136719 187.90625 " fill-opacity="1" fill-rule="nonzero"/></g><path fill="#33aa40" d="M 168.066406 184.144531 C 168.371094 185.34375 168.671875 186.605469 168.964844 187.90625 C 169.183594 188.875 169.398438 189.820312 169.605469 190.808594 L 191.894531 190.808594 C 192.039062 189.808594 192.183594 188.839844 192.328125 187.90625 C 193.78125 178.359375 195.28125 171.777344 196.683594 167.199219 L 161.476562 167.199219 C 163.9375 170.828125 166.09375 176.390625 168.066406 184.144531 Z M 168.066406 184.144531 " fill-opacity="1" fill-rule="nonzero"/><path fill="#33aa40" d="M 154.21875 167.949219 C 153.917969 167.777344 153.59375 167.691406 153.25 167.691406 C 152.652344 167.726562 152.113281 167.917969 151.628906 168.265625 C 147.3125 170.996094 145.953125 175.523438 148 180.359375 C 149.082031 182.882812 151.210938 185.589844 154.40625 187.90625 C 155.996094 189.058594 157.691406 190.027344 159.492188 190.808594 L 163.695312 190.808594 C 163.480469 189.792969 163.257812 188.828125 163.039062 187.90625 C 159.425781 172.652344 155.941406 168.855469 154.21875 167.949219 Z M 154.21875 167.949219 " fill-opacity="1" fill-rule="nonzero"/><path fill="#33aa40" d="M 211.6875 170.066406 C 211.8125 169.113281 211.867188 168.15625 211.84375 167.199219 L 202.742188 167.199219 C 201.363281 171.246094 199.777344 177.679688 198.191406 187.90625 L 198.144531 188.175781 L 198.628906 187.90625 C 209.179688 181.914062 211.277344 173.152344 211.6875 170.066406 Z M 211.6875 170.066406 " fill-opacity="1" fill-rule="nonzero"/><path fill="#33aa40" d="M 217.445312 170.824219 C 216.945312 174.101562 215.925781 177.203125 214.375 180.132812 C 212.824219 183.0625 210.835938 185.652344 208.40625 187.90625 C 207.289062 188.953125 206.113281 189.921875 204.867188 190.808594 L 249.28125 190.808594 C 249.5625 189.84375 249.839844 188.875 250.109375 187.90625 C 251.945312 181.117188 253.089844 174.214844 253.546875 167.199219 L 217.652344 167.199219 C 217.671875 168.410156 217.601562 169.621094 217.445312 170.824219 Z M 217.445312 170.824219 " fill-opacity="1" fill-rule="nonzero"/><path fill="#72bfde" d="M 170.152344 193.53125 C 175.15625 194.015625 180.972656 193.691406 187.601562 192.109375 C 189.125 191.742188 190.546875 191.335938 191.882812 190.886719 L 191.882812 190.820312 L 169.605469 190.820312 C 169.796875 191.707031 169.976562 192.609375 170.152344 193.53125 Z M 170.152344 193.53125 " fill-opacity="1" fill-rule="nonzero"/><path fill="#72bfde" d="M 164.015625 192.421875 L 163.675781 190.820312 L 159.472656 190.820312 C 160.945312 191.46875 162.460938 192 164.015625 192.421875 Z M 164.015625 192.421875 " fill-opacity="1" fill-rule="nonzero"/><path fill="#72bfde" d="M 171.226562 199.445312 C 171.949219 203.671875 172.632812 208.253906 173.277344 213.195312 L 173.421875 214.351562 L 189.21875 214.351562 L 189.21875 214.171875 C 189.25 213.84375 189.28125 213.523438 189.308594 213.203125 C 189.871094 207.269531 190.453125 201.964844 191.046875 197.242188 C 190.371094 197.425781 189.671875 197.609375 188.960938 197.78125 C 183.132812 199.21875 177.222656 199.773438 171.226562 199.445312 Z M 171.226562 199.445312 " fill-opacity="1" fill-rule="nonzero"/><path fill="#72bfde" d="M 197.160156 195.089844 C 196.472656 200.300781 195.789062 206.300781 195.136719 213.1875 C 195.097656 213.570312 195.0625 213.953125 195.023438 214.34375 L 238.539062 214.34375 C 238.792969 213.964844 239.046875 213.582031 239.296875 213.1875 C 243.167969 207.128906 246.691406 199.417969 249.28125 190.816406 L 204.867188 190.816406 C 202.457031 192.53125 199.890625 193.953125 197.160156 195.089844 Z M 197.160156 195.089844 " fill-opacity="1" fill-rule="nonzero"/><path fill="#72bfde" d="M 120.949219 213.195312 C 121.199219 213.585938 121.433594 213.96875 121.707031 214.351562 L 167.546875 214.351562 C 167.5 213.957031 167.445312 213.578125 167.398438 213.195312 C 166.6875 207.714844 165.945312 202.890625 165.203125 198.648438 C 162.9375 198.207031 160.730469 197.570312 158.578125 196.746094 C 154.929688 195.367188 151.636719 193.390625 148.707031 190.820312 L 110.960938 190.820312 C 113.554688 199.445312 117.058594 207.132812 120.949219 213.195312 Z M 120.949219 213.195312 " fill-opacity="1" fill-rule="nonzero"/><path fill="#4757af" d="M 194.996094 214.683594 C 194.511719 219.976562 194.082031 225.21875 193.71875 230.195312 C 193.492188 233.386719 193.28125 236.484375 193.097656 239.382812 L 220.636719 239.382812 C 222.480469 236.597656 224.5625 233.542969 226.929688 230.195312 C 229.75 226.210938 232.957031 221.832031 236.605469 217.042969 C 237.253906 216.191406 237.898438 215.289062 238.542969 214.351562 L 195.023438 214.351562 Z M 194.996094 214.683594 " fill-opacity="1" fill-rule="nonzero"/><path fill="#4757af" d="M 173.984375 219.230469 C 174.410156 222.925781 174.792969 226.609375 175.132812 230.195312 C 175.429688 233.347656 175.699219 236.425781 175.933594 239.382812 L 187.28125 239.382812 C 187.464844 236.484375 187.667969 233.402344 187.898438 230.195312 C 188.265625 225.121094 188.691406 219.761719 189.195312 214.351562 L 173.398438 214.351562 C 173.597656 215.941406 173.796875 217.566406 173.984375 219.230469 Z M 173.984375 219.230469 " fill-opacity="1" fill-rule="nonzero"/><path fill="#4757af" d="M 123.632812 217.042969 C 127.289062 221.832031 130.496094 226.210938 133.3125 230.195312 C 135.675781 233.53125 137.757812 236.589844 139.601562 239.382812 L 170.089844 239.382812 C 169.851562 236.433594 169.605469 233.351562 169.28125 230.195312 C 168.957031 226.808594 168.59375 223.339844 168.195312 219.859375 C 167.976562 217.953125 167.753906 216.117188 167.53125 214.351562 L 121.707031 214.351562 C 122.34375 215.289062 122.984375 216.191406 123.632812 217.042969 Z M 123.632812 217.042969 " fill-opacity="1" fill-rule="nonzero"/><path fill="#8a198a" d="M 176.960938 253.867188 C 177.136719 256.714844 177.269531 259.210938 177.371094 261.261719 L 186.164062 261.261719 C 186.21875 259.847656 186.320312 257.285156 186.484375 253.867188 C 186.671875 249.996094 186.933594 245.007812 187.28125 239.355469 L 175.933594 239.355469 C 176.367188 244.738281 176.703125 249.675781 176.960938 253.867188 Z M 176.960938 253.867188 " fill-opacity="1" fill-rule="nonzero"/><path fill="#8a198a" d="M 148.496094 253.867188 C 149.875 256.261719 151.117188 258.726562 152.21875 261.261719 L 171.574219 261.261719 C 171.46875 259.199219 171.332031 256.699219 171.160156 253.867188 C 170.898438 249.667969 170.558594 244.730469 170.125 239.355469 L 139.636719 239.355469 C 143.671875 245.523438 146.539062 250.335938 148.496094 253.867188 Z M 148.496094 253.867188 " fill-opacity="1" fill-rule="nonzero"/><path fill="#8a198a" d="M 192.300781 253.867188 C 192.136719 257.25 192.03125 259.785156 191.976562 261.261719 L 208.027344 261.261719 C 209.128906 258.726562 210.371094 256.261719 211.753906 253.867188 C 213.6875 250.335938 216.59375 245.523438 220.636719 239.355469 L 193.117188 239.355469 C 192.75 244.996094 192.484375 249.96875 192.300781 253.867188 Z M 192.300781 253.867188 " fill-opacity="1" fill-rule="nonzero"/><path fill="#72bfde" d="M 214.371094 279.882812 C 214.371094 279.472656 214.332031 279.070312 214.25 278.671875 C 214.171875 278.269531 214.054688 277.882812 213.898438 277.503906 C 213.742188 277.128906 213.550781 276.769531 213.324219 276.433594 C 213.097656 276.09375 212.839844 275.78125 212.550781 275.492188 C 212.261719 275.203125 211.949219 274.945312 211.609375 274.71875 C 211.269531 274.492188 210.914062 274.304688 210.535156 274.148438 C 210.160156 273.992188 209.769531 273.875 209.371094 273.792969 C 208.96875 273.714844 208.566406 273.675781 208.15625 273.675781 C 208.574219 273.6875 208.984375 273.65625 209.394531 273.585938 C 209.804688 273.515625 210.203125 273.40625 210.589844 273.253906 C 210.976562 273.101562 211.34375 272.914062 211.691406 272.691406 C 212.042969 272.464844 212.367188 272.210938 212.664062 271.921875 C 212.960938 271.632812 213.226562 271.316406 213.460938 270.972656 C 213.695312 270.628906 213.894531 270.265625 214.054688 269.886719 C 214.214844 269.503906 214.339844 269.109375 214.421875 268.699219 C 214.503906 268.292969 214.542969 267.882812 214.542969 267.46875 C 214.542969 267.054688 214.503906 266.640625 214.421875 266.234375 C 214.339844 265.828125 214.214844 265.433594 214.054688 265.050781 C 213.894531 264.667969 213.695312 264.308594 213.460938 263.964844 C 213.226562 263.621094 212.960938 263.304688 212.664062 263.015625 C 212.367188 262.726562 212.042969 262.46875 211.691406 262.246094 C 211.34375 262.019531 210.976562 261.832031 210.589844 261.683594 C 210.203125 261.53125 209.804688 261.421875 209.394531 261.351562 C 208.984375 261.277344 208.574219 261.25 208.15625 261.261719 L 152.179688 261.261719 C 151.78125 261.273438 151.382812 261.320312 150.992188 261.410156 C 150.601562 261.496094 150.222656 261.621094 149.855469 261.78125 C 149.488281 261.941406 149.140625 262.136719 148.8125 262.367188 C 148.484375 262.59375 148.179688 262.851562 147.898438 263.140625 C 147.621094 263.425781 147.371094 263.738281 147.152344 264.074219 C 146.933594 264.40625 146.746094 264.761719 146.597656 265.132812 C 146.445312 265.503906 146.332031 265.886719 146.253906 266.277344 C 146.179688 266.671875 146.140625 267.066406 146.140625 267.46875 C 146.140625 267.867188 146.179688 268.265625 146.253906 268.660156 C 146.332031 269.050781 146.445312 269.433594 146.597656 269.804688 C 146.746094 270.175781 146.933594 270.527344 147.152344 270.863281 C 147.371094 271.199219 147.621094 271.511719 147.898438 271.796875 C 148.179688 272.085938 148.484375 272.34375 148.8125 272.570312 C 149.140625 272.800781 149.488281 272.992188 149.855469 273.15625 C 150.222656 273.316406 150.601562 273.441406 150.992188 273.527344 C 151.382812 273.617188 151.78125 273.664062 152.179688 273.675781 C 151.773438 273.675781 151.367188 273.714844 150.96875 273.796875 C 150.570312 273.875 150.179688 273.992188 149.804688 274.148438 C 149.425781 274.304688 149.070312 274.496094 148.730469 274.722656 C 148.390625 274.949219 148.078125 275.207031 147.789062 275.492188 C 147.5 275.78125 147.246094 276.09375 147.019531 276.433594 C 146.792969 276.773438 146.601562 277.128906 146.445312 277.507812 C 146.289062 277.882812 146.171875 278.269531 146.089844 278.671875 C 146.011719 279.070312 145.972656 279.472656 145.972656 279.882812 C 145.972656 280.289062 146.011719 280.691406 146.089844 281.09375 C 146.171875 281.492188 146.289062 281.878906 146.445312 282.257812 C 146.601562 282.632812 146.792969 282.992188 147.019531 283.328125 C 147.246094 283.667969 147.5 283.980469 147.789062 284.269531 C 148.078125 284.558594 148.390625 284.816406 148.730469 285.042969 C 149.070312 285.265625 149.425781 285.457031 149.804688 285.613281 C 150.179688 285.769531 150.570312 285.886719 150.96875 285.96875 C 151.367188 286.046875 151.773438 286.085938 152.179688 286.085938 C 151.78125 286.097656 151.382812 286.148438 150.992188 286.234375 C 150.601562 286.324219 150.222656 286.445312 149.855469 286.609375 C 149.488281 286.769531 149.140625 286.964844 148.8125 287.191406 C 148.484375 287.421875 148.179688 287.679688 147.898438 287.964844 C 147.621094 288.253906 147.371094 288.5625 147.152344 288.898438 C 146.933594 289.234375 146.746094 289.585938 146.597656 289.957031 C 146.445312 290.328125 146.332031 290.710938 146.253906 291.105469 C 146.179688 291.496094 146.140625 291.894531 146.140625 292.292969 C 146.140625 292.695312 146.179688 293.09375 146.253906 293.484375 C 146.332031 293.878906 146.445312 294.261719 146.597656 294.632812 C 146.746094 295.003906 146.933594 295.355469 147.152344 295.691406 C 147.371094 296.027344 147.621094 296.335938 147.898438 296.625 C 148.179688 296.910156 148.484375 297.167969 148.8125 297.398438 C 149.140625 297.625 149.488281 297.820312 149.855469 297.980469 C 150.222656 298.140625 150.601562 298.265625 150.992188 298.355469 C 151.382812 298.441406 151.78125 298.492188 152.179688 298.503906 C 151.78125 298.515625 151.382812 298.5625 150.992188 298.652344 C 150.601562 298.738281 150.222656 298.863281 149.855469 299.023438 C 149.488281 299.183594 149.140625 299.378906 148.8125 299.609375 C 148.484375 299.835938 148.179688 300.09375 147.898438 300.378906 C 147.621094 300.667969 147.371094 300.980469 147.152344 301.3125 C 146.933594 301.648438 146.746094 302.003906 146.597656 302.375 C 146.445312 302.746094 146.332031 303.128906 146.253906 303.519531 C 146.179688 303.914062 146.140625 304.308594 146.140625 304.710938 C 146.140625 305.109375 146.179688 305.507812 146.253906 305.902344 C 146.332031 306.292969 146.445312 306.675781 146.597656 307.046875 C 146.746094 307.417969 146.933594 307.769531 147.152344 308.105469 C 147.371094 308.441406 147.621094 308.753906 147.898438 309.039062 C 148.179688 309.328125 148.484375 309.585938 148.8125 309.8125 C 149.140625 310.042969 149.488281 310.234375 149.855469 310.398438 C 150.222656 310.558594 150.601562 310.683594 150.992188 310.769531 C 151.382812 310.859375 151.78125 310.90625 152.179688 310.917969 L 208.15625 310.917969 C 208.574219 310.929688 208.984375 310.898438 209.394531 310.828125 C 209.804688 310.757812 210.203125 310.648438 210.589844 310.496094 C 210.976562 310.34375 211.34375 310.15625 211.691406 309.933594 C 212.042969 309.707031 212.367188 309.453125 212.664062 309.164062 C 212.960938 308.875 213.226562 308.558594 213.460938 308.214844 C 213.695312 307.871094 213.894531 307.507812 214.054688 307.125 C 214.214844 306.746094 214.339844 306.351562 214.421875 305.941406 C 214.503906 305.535156 214.542969 305.125 214.542969 304.710938 C 214.542969 304.296875 214.503906 303.882812 214.421875 303.476562 C 214.339844 303.070312 214.214844 302.675781 214.054688 302.292969 C 213.894531 301.910156 213.695312 301.550781 213.460938 301.207031 C 213.226562 300.863281 212.960938 300.546875 212.664062 300.257812 C 212.367188 299.96875 212.042969 299.710938 211.691406 299.488281 C 211.34375 299.261719 210.976562 299.074219 210.589844 298.925781 C 210.203125 298.773438 209.804688 298.664062 209.394531 298.589844 C 208.984375 298.519531 208.574219 298.492188 208.15625 298.503906 C 208.574219 298.515625 208.984375 298.484375 209.394531 298.414062 C 209.804688 298.34375 210.203125 298.230469 210.589844 298.082031 C 210.976562 297.929688 211.34375 297.742188 211.691406 297.519531 C 212.042969 297.292969 212.367188 297.035156 212.664062 296.746094 C 212.960938 296.457031 213.226562 296.140625 213.460938 295.796875 C 213.695312 295.457031 213.894531 295.09375 214.054688 294.710938 C 214.214844 294.328125 214.339844 293.933594 214.421875 293.527344 C 214.503906 293.121094 214.542969 292.710938 214.542969 292.292969 C 214.542969 291.878906 214.503906 291.46875 214.421875 291.0625 C 214.339844 290.65625 214.214844 290.261719 214.054688 289.878906 C 213.894531 289.496094 213.695312 289.132812 213.460938 288.789062 C 213.226562 288.449219 212.960938 288.132812 212.664062 287.84375 C 212.367188 287.554688 212.042969 287.296875 211.691406 287.070312 C 211.34375 286.847656 210.976562 286.660156 210.589844 286.507812 C 210.203125 286.359375 209.804688 286.246094 209.394531 286.175781 C 208.984375 286.105469 208.574219 286.074219 208.15625 286.085938 C 208.566406 286.085938 208.96875 286.046875 209.371094 285.96875 C 209.769531 285.890625 210.160156 285.773438 210.535156 285.617188 C 210.914062 285.460938 211.269531 285.269531 211.609375 285.042969 C 211.949219 284.816406 212.261719 284.558594 212.550781 284.269531 C 212.839844 283.984375 213.097656 283.667969 213.324219 283.332031 C 213.550781 282.992188 213.742188 282.632812 213.898438 282.257812 C 214.054688 281.878906 214.171875 281.492188 214.25 281.09375 C 214.332031 280.691406 214.371094 280.289062 214.371094 279.882812 Z M 214.371094 279.882812 " fill-opacity="1" fill-rule="nonzero"/><path fill="#0066cc" d="M 180 51.621094 C 250.855469 51.621094 308.378906 109.144531 308.378906 180 C 308.378906 250.851562 250.855469 308.375 180 308.375 C 109.144531 308.375 51.621094 250.851562 51.621094 180 C 51.621094 109.144531 109.144531 51.621094 180 51.621094 Z M 190.707031 0.4375 C 183.574219 0.0117188 176.425781 0.0117188 169.296875 0.4375 L 156.875 28.859375 C 145.78125 30.558594 134.914062 33.472656 124.460938 37.546875 L 99.488281 19.144531 C 93.101562 22.339844 86.910156 25.914062 80.949219 29.847656 L 84.402344 60.675781 C 75.644531 67.6875 67.6875 75.644531 60.671875 84.402344 L 29.847656 80.949219 C 25.914062 86.910156 22.339844 93.101562 19.144531 99.488281 L 37.546875 124.457031 C 33.472656 134.910156 30.558594 145.78125 28.863281 156.871094 L 0.4375 169.292969 C 0.0117188 176.425781 0.0117188 183.574219 0.4375 190.703125 L 28.863281 203.125 C 30.558594 214.214844 33.472656 225.085938 37.546875 235.539062 L 19.144531 260.507812 C 22.339844 266.894531 25.914062 273.085938 29.847656 279.050781 L 60.671875 275.597656 C 67.6875 284.351562 75.644531 292.3125 84.402344 299.324219 L 80.949219 330.152344 C 86.910156 334.085938 93.105469 337.660156 99.492188 340.855469 L 124.460938 322.453125 C 134.914062 326.527344 145.78125 329.441406 156.875 331.136719 L 169.296875 359.558594 C 176.425781 359.984375 183.574219 359.984375 190.707031 359.558594 L 203.128906 331.136719 C 214.21875 329.441406 225.085938 326.527344 235.539062 322.453125 L 260.507812 340.855469 C 266.898438 337.660156 273.089844 334.085938 279.050781 330.152344 L 275.597656 299.324219 C 284.355469 292.308594 292.3125 284.351562 299.328125 275.597656 L 330.152344 279.050781 C 334.085938 273.085938 337.660156 266.894531 340.855469 260.507812 L 322.453125 235.539062 C 326.527344 225.085938 329.441406 214.214844 331.136719 203.125 L 359.5625 190.703125 C 359.988281 183.574219 359.988281 176.425781 359.5625 169.292969 L 331.136719 156.875 C 329.441406 145.78125 326.527344 134.914062 322.453125 124.460938 L 340.855469 99.492188 C 337.660156 93.101562 334.085938 86.914062 330.152344 80.949219 L 299.328125 84.402344 C 292.3125 75.648438 284.355469 67.691406 275.597656 60.675781 L 279.050781 29.847656 C 273.085938 25.914062 266.894531 22.339844 260.507812 19.144531 L 235.539062 37.546875 C 225.089844 33.472656 214.21875 30.558594 203.128906 28.863281 Z M 190.707031 0.4375 " fill-opacity="1" fill-rule="evenodd"/></svg>